<svg width="22" height="22" viewBox="0 0 13 13" fill="none" xmlns="http://www.w3.org/2000/svg">
    <path
        d="M0.552657 0C0.406083 0 0.265513 0.0570684 0.16187 0.158651C0.0582263 0.260233 0 0.398008 0 0.541667C0 0.685326 0.0582263 0.823101 0.16187 0.924683C0.265513 1.02626 0.406083 1.08333 0.552657 1.08333H0.824564C0.944569 1.08354 1.06125 1.12202 1.15696 1.19297C1.25268 1.26391 1.32223 1.36347 1.35511 1.47658L3.10814 7.48908C3.20729 7.82839 3.41646 8.12683 3.70402 8.33929C3.99158 8.55174 4.3419 8.66666 4.702 8.66667H9.75218C10.0836 8.66672 10.4074 8.56942 10.6819 8.38732C10.9563 8.20523 11.1688 7.94669 11.2919 7.64508L12.9211 3.65192C12.9881 3.4876 13.013 3.30971 12.9936 3.13379C12.9743 2.95787 12.9112 2.78928 12.81 2.64275C12.7088 2.49622 12.5726 2.37621 12.4131 2.29322C12.2537 2.21023 12.0759 2.16678 11.8954 2.16667H2.70581L2.41732 1.17867C2.31842 0.839337 2.10951 0.540785 1.82215 0.328138C1.5348 0.115491 1.18463 0.000308065 0.824564 0H0.552657ZM4.97391 13C5.19164 13 5.40724 12.958 5.60839 12.8763C5.80954 12.7946 5.99232 12.6749 6.14627 12.524C6.30023 12.3732 6.42236 12.194 6.50568 11.9969C6.589 11.7997 6.63188 11.5884 6.63188 11.375C6.63188 11.1616 6.589 10.9503 6.50568 10.7531C6.42236 10.556 6.30023 10.3768 6.14627 10.226C5.99232 10.0751 5.80954 9.95536 5.60839 9.8737C5.40724 9.79203 5.19164 9.75 4.97391 9.75C4.53419 9.75 4.11248 9.9212 3.80155 10.226C3.49062 10.5307 3.31594 10.944 3.31594 11.375C3.31594 11.806 3.49062 12.2193 3.80155 12.524C4.11248 12.8288 4.53419 13 4.97391 13ZM4.97391 11.9167C4.82734 11.9167 4.68677 11.8596 4.58312 11.758C4.47948 11.6564 4.42125 11.5187 4.42125 11.375C4.42125 11.2313 4.47948 11.0936 4.58312 10.992C4.68677 10.8904 4.82734 10.8333 4.97391 10.8333C5.12048 10.8333 5.26106 10.8904 5.3647 10.992C5.46834 11.0936 5.52657 11.2313 5.52657 11.375C5.52657 11.5187 5.46834 11.6564 5.3647 11.758C5.26106 11.8596 5.12048 11.9167 4.97391 11.9167ZM9.39517 13C9.61289 13 9.82849 12.958 10.0296 12.8763C10.2308 12.7946 10.4136 12.6749 10.5675 12.524C10.7215 12.3732 10.8436 12.194 10.9269 11.9969C11.0103 11.7997 11.0531 11.5884 11.0531 11.375C11.0531 11.1616 11.0103 10.9503 10.9269 10.7531C10.8436 10.556 10.7215 10.3768 10.5675 10.226C10.4136 10.0751 10.2308 9.95536 10.0296 9.8737C9.82849 9.79203 9.61289 9.75 9.39517 9.75C8.95545 9.75 8.53373 9.9212 8.2228 10.226C7.91187 10.5307 7.7372 10.944 7.7372 11.375C7.7372 11.806 7.91187 12.2193 8.2228 12.524C8.53373 12.8288 8.95545 13 9.39517 13ZM9.39517 11.9167C9.24859 11.9167 9.10802 11.8596 9.00438 11.758C8.90074 11.6564 8.84251 11.5187 8.84251 11.375C8.84251 11.2313 8.90074 11.0936 9.00438 10.992C9.10802 10.8904 9.24859 10.8333 9.39517 10.8333C9.54174 10.8333 9.68231 10.8904 9.78595 10.992C9.8896 11.0936 9.94782 11.2313 9.94782 11.375C9.94782 11.5187 9.8896 11.6564 9.78595 11.758C9.68231 11.8596 9.54174 11.9167 9.39517 11.9167Z"
        fill="#1E2827" />
</svg>