<svg width="44" height="44" viewBox="0 0 44 44" fill="none" xmlns="http://www.w3.org/2000/svg">
<rect x="0.5" y="0.5" width="43" height="43" rx="9.5" stroke="white" stroke-opacity="0.1"/>
<g opacity="0.8">
<path fill-rule="evenodd" clip-rule="evenodd" d="M29.21 13.2499C28.02 13.1799 25.57 13.1099 21.86 13.1099H21.37C17.8 13.1099 15.4201 13.1799 14.2301 13.3199C12.6201 13.4599 11.5 13.8799 10.87 14.4399C10.31 14.9299 9.89005 15.8399 9.75005 17.0299C9.68005 17.7999 9.61005 19.4099 9.61005 21.8599V22.2099C9.61005 24.5199 9.68004 26.1299 9.82004 26.8999C10.03 28.0199 10.3801 28.8599 11.0801 29.3499C11.7801 29.9099 12.9701 30.2599 14.6501 30.3999C15.8401 30.4699 18.2901 30.5399 22.0001 30.5399H22.4901C26.0601 30.5399 28.4401 30.4699 29.6301 30.3299C31.2401 30.1899 32.3601 29.7699 32.9901 29.2099C33.5501 28.7199 33.97 27.8099 34.11 26.6199C34.18 25.8499 34.2501 24.2399 34.2501 21.7899V21.4399C34.2501 19.1299 34.1801 17.5199 34.0401 16.7499C33.8301 15.6299 33.4801 14.7899 32.7801 14.2999C32.0801 13.7399 30.89 13.3899 29.21 13.2499ZM26.4801 21.8599L18.7801 26.4799V17.2399L26.4801 21.8599Z" fill="white"/>
</g>
</svg>
